<svg width="50" height="60" viewBox="0 0 50 60" fill="none" xmlns="http://www.w3.org/2000/svg">
<path fill-rule="evenodd" clip-rule="evenodd" d="M0.000100441 34.9798C-0.000125551 32.2645 0.000100441 0.958595 0.000100441 0.958595C11.5003 3.72241 17.3968 3.9564 24.9235 0L24.9209 13.606C23.5716 15.5956 22.3324 17.6098 21.3311 19.4758C20.1299 21.7105 18.9918 23.1471 17.917 23.7856C16.8422 24.424 15.1194 24.7273 12.7485 24.6954L11.1837 30.298H17.7748L12.2926 51.9819C12.2934 51.9829 12.2945 51.9841 12.2958 51.9855C2.15087 45.5789 0.000314631 37.5533 0.000100441 34.9798ZM20.1544 56.4574C25.3859 59.3897 24.9123 59.1059 24.9123 59.1059L24.9165 36.8868L21.0209 52.4213C20.6741 53.8181 20.3908 55.1635 20.1544 56.4574ZM24.9304 36.8315L24.9346 59.1059C24.9346 59.1059 24.1481 59.5773 35.8003 53.0286C47.4525 46.4799 49.8466 37.6951 49.8468 34.9798C49.8471 32.2645 49.8468 0.958595 49.8468 0.958595C45.3394 2.04186 41.6928 2.73649 38.4715 2.9425C35.1255 7.38744 29.8408 17.2692 28.0388 24.6954H34.9143L33.2547 30.298H26.5688L24.9304 36.8315ZM33.8435 2.86606C30.8125 2.53696 28.0046 1.61958 24.9235 0L24.926 13.5985C27.8136 9.34164 31.2041 5.19917 33.8435 2.86606Z" fill="#FF2231"/>
</svg>
