<svg width="442" height="419" viewBox="0 0 442 419" fill="none" xmlns="http://www.w3.org/2000/svg">
<path d="M235.144 153.927L234.848 153.314L238.518 151.529L238.815 152.142L235.144 153.927ZM227.803 157.494L227.506 156.884L231.177 155.099L231.474 155.712L227.803 157.494ZM220.462 161.064L220.164 160.452L223.836 158.667L224.132 159.279L220.462 161.064ZM213.12 164.634L212.823 164.022L216.494 162.237L216.791 162.849L213.12 164.634ZM205.776 168.201L205.482 167.589L209.152 165.807L209.45 166.419L205.776 168.201ZM198.26 171.448L198.014 170.814C199.288 170.318 200.555 169.801 201.779 169.273L202.049 169.897C200.816 170.427 199.541 170.95 198.26 171.448ZM190.535 174.15L190.331 173.499C191.643 173.088 192.943 172.656 194.195 172.22L194.419 172.862C193.161 173.301 191.854 173.733 190.535 174.15ZM182.666 176.386L182.497 175.728C183.827 175.388 185.15 175.028 186.43 174.667L186.615 175.322C185.33 175.687 184.002 176.043 182.666 176.386ZM174.992 178.884L174.689 178.275C175.919 177.665 177.211 177.154 178.53 176.751L178.729 177.399C177.445 177.793 176.188 178.291 174.992 178.884ZM168.553 183.63L168.055 183.164C168.253 182.952 168.456 182.743 168.663 182.536C169.424 181.785 170.261 181.072 171.153 180.419L171.555 180.969C170.69 181.6 169.879 182.291 169.142 183.02C168.941 183.219 168.744 183.423 168.553 183.63ZM164.395 190.43L163.754 190.201C164.219 188.909 164.823 187.654 165.55 186.465L166.13 186.822C165.427 187.97 164.843 189.183 164.395 190.43ZM170.209 191.118C168.92 190.873 167.574 190.732 166.21 190.699L166.226 190.019C167.628 190.051 169.011 190.198 170.336 190.449L170.209 191.118ZM158.234 191.681L158.055 191.026C159.384 190.664 160.746 190.397 162.103 190.226L162.188 190.9C160.861 191.066 159.531 191.33 158.234 191.681ZM177.537 194.166C176.547 193.412 175.378 192.762 174.061 192.231L174.315 191.6C175.688 192.152 176.911 192.835 177.949 193.624L177.537 194.166ZM150.854 194.868L150.496 194.288C151.651 193.575 152.883 192.933 154.159 192.383L154.428 193.009C153.183 193.545 151.981 194.171 150.854 194.868ZM162.76 198.389C162.682 197.744 162.643 197.08 162.643 196.419C162.642 195.7 162.689 194.963 162.781 194.234L163.456 194.318C163.367 195.02 163.323 195.728 163.323 196.419C163.323 197.053 163.361 197.69 163.435 198.307L162.76 198.389ZM144.788 200.117L144.267 199.679C145.15 198.626 146.125 197.635 147.166 196.734L147.61 197.249C146.597 198.125 145.648 199.091 144.788 200.117ZM181.769 200.83L181.089 200.813L181.091 200.634C181.091 199.613 180.883 198.615 180.49 197.744C180.388 197.518 180.275 197.295 180.153 197.08L180.744 196.745C180.877 196.979 180.999 197.219 181.11 197.464C181.543 198.421 181.771 199.518 181.771 200.634L181.769 200.83ZM166.051 205.945C165.135 204.96 164.382 203.774 163.811 202.416L164.439 202.152C164.978 203.436 165.688 204.555 166.549 205.48L166.051 205.945ZM140.341 206.892L139.762 206.533C140.478 205.379 141.183 204.217 141.878 203.05L142.462 203.398C141.766 204.568 141.059 205.733 140.341 206.892ZM177.68 207.875L177.34 207.284C178.46 206.639 179.398 205.692 180.052 204.547L180.643 204.881C179.929 206.133 178.904 207.167 177.68 207.875ZM173.163 209.036C171.908 209.036 170.641 208.794 169.498 208.337L169.75 207.706C170.813 208.13 171.993 208.356 173.163 208.356C173.265 208.345 173.351 208.348 173.435 208.348C173.49 208.348 173.545 208.348 173.604 208.345L173.637 209.026C173.479 209.034 173.291 209.023 173.163 209.036ZM135.893 213.752L135.33 213.371C136.092 212.247 136.842 211.115 137.581 209.975L138.152 210.345C137.411 211.488 136.658 212.625 135.893 213.752ZM131.159 220.421L130.614 220.013C131.412 218.941 132.218 217.834 133.008 216.721L133.563 217.113C132.77 218.231 131.961 219.344 131.159 220.421ZM126.124 226.865L125.599 226.435C126.448 225.401 127.305 224.329 128.144 223.254L128.68 223.673C127.837 224.753 126.977 225.828 126.124 226.865ZM120.777 233.055L120.274 232.598C121.176 231.608 122.085 230.582 122.975 229.551L123.49 229.994C122.595 231.031 121.683 232.059 120.777 233.055ZM115.109 238.955L114.631 238.47C115.59 237.526 116.553 236.552 117.493 235.572L117.983 236.043C117.039 237.025 116.072 238.005 115.109 238.955ZM109.212 244.606L108.742 244.114L111.695 241.297L112.165 241.787L109.212 244.606Z" fill="#9192FF"/>
<path opacity="0.2" d="M222.603 27.4272C222.603 27.5686 222.603 27.7019 222.619 27.8434H312.079C311.845 20.4693 305.426 14.5565 297.554 14.5565C295.029 14.5565 292.662 15.1605 290.594 16.2245C290.703 10.4857 287.944 4.98921 282.863 2.03957C275.239 -2.37945 265.263 0.619135 260.597 8.74153C259.193 11.1905 258.42 13.8245 258.246 16.4394C254.526 14.7388 249.917 13.7239 244.918 13.7239C232.592 13.7239 222.603 19.8626 222.603 27.4272Z" fill="#EBEBFF"/>
<path d="M0.529523 235.965H73.2999C73.2999 235.938 73.2999 235.908 73.2999 235.881C73.2999 229.832 65.2148 224.909 55.2767 224.909C51.3496 224.909 47.6106 225.671 44.4645 227.113L44.1284 227.266L44.1034 226.898C43.9586 224.724 43.3222 222.64 42.2117 220.7C40.3181 217.404 37.3176 215.064 33.7636 214.112C30.5105 213.239 27.1571 213.663 24.3231 215.304C20.4053 217.579 18.0271 221.943 18.1169 226.7L18.1248 227.124L17.7455 226.931C16.0402 226.055 14.109 225.589 12.161 225.589C5.91398 225.589 0.857412 230.125 0.529523 235.965ZM73.7682 236.476H0L0.00816454 236.213C0.204898 229.97 5.54309 225.081 12.161 225.081C14.0492 225.081 15.9221 225.497 17.6051 226.291C17.6543 221.513 20.1038 217.162 24.0673 214.863C27.0194 213.151 30.5114 212.711 33.8961 213.619C37.5821 214.607 40.6923 217.032 42.6539 220.447C43.7418 222.346 44.3899 224.379 44.5839 226.498C47.7257 225.124 51.4138 224.4 55.2767 224.4C65.4962 224.4 73.8101 229.551 73.8101 235.881C73.8101 236.006 73.8093 236.125 73.7949 236.251L73.7682 236.476Z" fill="#9192FF"/>
<path d="M218.019 229.124C218.019 237.818 225.068 244.868 233.759 244.868H408.607C417.301 244.868 424.348 237.818 424.348 229.124V122.744H218.019V229.124Z" fill="white"/>
<path d="M389.211 244.868H310.765C314.844 240.909 318.858 236.615 322.781 232.065C322.89 232.264 322.996 232.468 323.097 232.672C323.279 232.106 323.481 231.546 323.698 230.993C327.44 226.604 331.1 221.978 334.673 217.17C337.636 215.086 340.958 213.521 344.471 212.629C346.83 212.027 349.26 211.736 351.687 211.736C359.434 211.736 367.197 214.694 372.819 220.041C383.823 221.815 391.867 234.068 389.211 244.868ZM218.019 198.479V161.356C219.265 160.991 220.548 160.752 221.849 160.648C222.333 160.61 222.82 160.591 223.307 160.591C230.877 160.591 238.333 165.163 241.639 171.998C241.677 171.998 241.715 171.998 241.753 171.998C246.001 171.998 250.167 174.444 252.227 178.158C254.306 181.908 254.153 186.79 251.849 190.4C252.54 190.526 253.223 190.694 253.889 190.909C242.183 194.444 230.363 196.817 218.019 198.479Z" fill="#F6F6FF"/>
<path d="M330.458 207.682C327.386 201.695 320.806 197.537 313.903 197.225C313.617 197.211 313.334 197.206 313.049 197.206C306.434 197.206 299.906 200.683 296.434 206.131C296.63 199.782 293.114 193.44 287.536 190.071C284.537 188.261 281.003 187.347 277.471 187.347C274.431 187.347 271.394 188.025 268.706 189.391C269.454 188.052 269.99 186.61 270.32 185.124C296.894 174.378 323.887 156.509 356.172 126.147L361.005 130.469C351.81 140.232 339.054 149.981 324.3 162.659L346.915 153.443C344.142 158.036 340.104 164.468 337.84 167.225C343.051 164.819 351.437 159.527 354.216 156.719C354.216 160.637 349.497 167.187 347.44 170.765C358.088 161.652 367.886 150.762 372.477 140.719L377.214 144.953C370.58 158.844 362.972 173.276 354.591 187.233C353.911 187.35 353.233 187.491 352.564 187.655C342.338 190.155 333.699 197.984 330.458 207.682Z" fill="#FFF6E9"/>
<path d="M322.782 232.065C319.701 226.408 313.552 222.525 307.111 222.228C306.842 222.215 306.572 222.209 306.303 222.209C299.906 222.209 293.587 225.695 290.227 231.148C290.42 224.8 287.03 218.46 281.642 215.096C278.752 213.29 275.343 212.378 271.936 212.378C268.994 212.378 266.056 213.058 263.452 214.43C265.911 209.867 266.039 204.12 263.786 199.453C261.835 195.418 258.151 192.275 253.89 190.909C259.378 189.252 264.839 187.339 270.319 185.124C269.99 186.61 269.454 188.052 268.706 189.391C271.394 188.025 274.431 187.347 277.47 187.347C281.002 187.347 284.537 188.261 287.536 190.071C293.114 193.439 296.63 199.782 296.434 206.131C299.906 200.683 306.434 197.205 313.048 197.205C313.334 197.205 313.617 197.211 313.903 197.225C320.806 197.537 327.386 201.695 330.458 207.682C333.699 197.984 342.338 190.155 352.564 187.655C353.233 187.491 353.911 187.35 354.591 187.233C348.349 197.619 341.682 207.744 334.673 217.17C329.794 220.604 325.886 225.445 323.699 230.993C323.394 231.352 323.089 231.709 322.782 232.065Z" fill="#F1E8E9"/>
<path d="M310.765 244.868H233.759C225.068 244.868 218.019 237.818 218.019 229.124V198.479C230.363 196.817 242.183 194.444 253.889 190.909C258.151 192.275 261.835 195.418 263.786 199.453C266.039 204.12 265.911 209.867 263.451 214.43C266.055 213.059 268.994 212.379 271.935 212.379C275.342 212.379 278.752 213.29 281.642 215.097C287.029 218.46 290.42 224.8 290.227 231.148C293.587 225.695 299.905 222.21 306.303 222.21C306.572 222.21 306.841 222.215 307.111 222.229C313.552 222.525 319.701 226.408 322.781 232.065C318.858 236.615 314.844 240.909 310.765 244.868ZM323.698 230.993C325.886 225.445 329.794 220.604 334.672 217.17C331.1 221.978 327.44 226.604 323.698 230.993Z" fill="#FCF3E9"/>
<path d="M364.243 126.849C354.926 137.872 340.875 148.416 324.301 162.658L346.916 153.442C344.143 158.035 340.105 164.468 337.841 167.224C343.052 164.819 351.438 159.526 354.216 156.718C354.216 160.637 349.498 167.186 347.441 170.764C359.503 160.441 370.477 147.837 374.02 136.767L364.243 126.849Z" fill="#FFA121"/>
<path d="M372.113 134.83L365.963 128.594C366.279 128.199 366.586 127.802 366.885 127.407L372.447 133.794C372.344 134.137 372.232 134.482 372.113 134.83Z" fill="white"/>
<path d="M356.697 156.305C357.927 153.943 360.727 149.608 360.768 147.048C359.13 148.912 354.216 152.46 351.171 154.087C352.512 152.261 354.918 148.014 356.572 144.98L343.375 151.241C352.594 142.269 360.474 135.483 365.963 128.593L372.112 134.83C369.666 141.856 363.456 149.752 356.697 156.305Z" fill="#FFC77A"/>
<path d="M281.31 164.846C281.384 166.553 281.31 169.429 279.607 170.414C276.766 172.057 274.532 168.063 273.487 166.057C272.244 163.657 272.562 160.683 275.376 159.617C279.093 158.204 281.174 161.668 281.31 164.846Z" fill="#D1D1FF"/>
<path d="M416.036 216.577C416.109 218.28 416.036 221.156 414.332 222.144C411.492 223.788 409.258 219.793 408.213 217.785C406.969 215.388 407.288 212.413 410.101 211.344C413.818 209.935 415.9 213.399 416.036 216.577Z" fill="#D1D1FF"/>
<path d="M268.592 145.573C268.592 146.89 267.525 147.954 266.211 147.954C264.897 147.954 263.83 146.89 263.83 145.573C263.83 144.259 264.897 143.192 266.211 143.192C267.525 143.192 268.592 144.259 268.592 145.573Z" fill="#D1D1FF"/>
<path d="M390.923 188.544C390.923 190.547 389.301 192.169 387.298 192.169C385.296 192.169 383.674 190.547 383.674 188.544C383.674 186.542 385.296 184.92 387.298 184.92C389.301 184.92 390.923 186.542 390.923 188.544Z" fill="#D1D1FF"/>
<path d="M218.359 123.084V229.127C218.359 237.619 225.267 244.528 233.759 244.528H408.607C417.099 244.528 424.008 237.619 424.008 229.127V123.084H218.359ZM408.607 245.208H233.759C224.894 245.208 217.679 237.992 217.679 229.127V122.403H424.689V229.127C424.689 237.992 417.475 245.208 408.607 245.208Z" fill="#9192FF"/>
<path d="M408.607 81.5281H233.759C225.068 81.5281 218.019 88.573 218.019 97.2695V122.744H424.348V97.2695C424.348 88.573 417.301 81.5281 408.607 81.5281Z" fill="white"/>
<path d="M218.359 122.404H424.008V97.269C424.008 88.7766 417.099 81.8678 408.607 81.8678H233.759C225.267 81.8678 218.359 88.7766 218.359 97.269V122.404ZM424.689 123.084H217.679V97.269C217.679 88.4011 224.894 81.1875 233.759 81.1875H408.607C417.475 81.1875 424.689 88.4011 424.689 97.269V123.084Z" fill="#9192FF"/>
<path d="M247.435 102.134C247.435 106.901 243.571 110.765 238.804 110.765C234.037 110.765 230.173 106.901 230.173 102.134C230.173 97.3695 234.037 93.5056 238.804 93.5056C243.571 93.5056 247.435 97.3695 247.435 102.134Z" fill="#D1D1FF"/>
<path d="M272.855 102.134C272.855 106.901 268.991 110.765 264.224 110.765C259.457 110.765 255.593 106.901 255.593 102.134C255.593 97.3695 259.457 93.5056 264.224 93.5056C268.991 93.5056 272.855 97.3695 272.855 102.134Z" fill="white"/>
<path d="M264.224 93.8461C259.653 93.8461 255.933 97.5658 255.933 102.134C255.933 106.706 259.653 110.426 264.224 110.426C268.796 110.426 272.513 106.706 272.513 102.134C272.513 97.5658 268.796 93.8461 264.224 93.8461ZM264.224 111.106C259.277 111.106 255.253 107.081 255.253 102.134C255.253 97.1903 259.277 93.1658 264.224 93.1658C269.171 93.1658 273.193 97.1903 273.193 102.134C273.193 107.081 269.171 111.106 264.224 111.106Z" fill="#9192FF"/>
<path d="M329.922 110.373H295.558C291.008 110.373 287.321 106.683 287.321 102.134C287.321 97.5869 291.008 93.8971 295.558 93.8971H329.922C334.472 93.8971 338.159 97.5869 338.159 102.134C338.159 106.683 334.472 110.373 329.922 110.373Z" fill="white"/>
<path d="M295.557 94.2376C291.204 94.2376 287.661 97.7805 287.661 102.134C287.661 106.491 291.204 110.033 295.557 110.033H329.922C334.275 110.033 337.818 106.491 337.818 102.134C337.818 97.7805 334.275 94.2376 329.922 94.2376H295.557ZM329.922 110.714H295.557C290.828 110.714 286.98 106.866 286.98 102.134C286.98 97.405 290.828 93.5574 295.557 93.5574H329.922C334.651 93.5574 338.498 97.405 338.498 102.134C338.498 106.866 334.651 110.714 329.922 110.714Z" fill="#9192FF"/>
<path d="M400.049 62.752C386.27 74.8145 362.504 66.5017 355.119 76.1315L376.221 92.8416L400.049 62.752Z" fill="#3335CF"/>
<path d="M355.119 76.1317C354.063 78.9426 354.637 82.1045 356.61 84.3657L371.562 101.492L376.221 92.8419L355.119 76.1317Z" fill="#D1D1FF"/>
<path d="M431.281 87.4837C422.698 103.661 436.236 124.888 428.554 134.283L407.452 117.573L431.281 87.4837Z" fill="#3335CF"/>
<path d="M428.555 134.284C426.062 135.954 422.851 136.123 420.198 134.719L400.101 124.09L407.453 117.573L428.555 134.284Z" fill="#D1D1FF"/>
<path d="M442 42.0203L423.214 48.9155L439.595 61.8868L442 42.0203Z" fill="#1B1B43"/>
<path d="M439.595 61.887C436.969 91.6175 415.005 119.356 388.325 134.765L364.015 115.533C374.216 83.4352 393.214 60.4694 423.214 48.9157L439.595 61.887Z" fill="#C5C5FF"/>
<path d="M364.015 115.533L353.468 122.834L383.631 146.719L388.325 134.766L364.015 115.533Z" fill="#3335CF"/>
<path d="M425.007 81.6555C421.137 86.5425 414.041 87.367 409.157 83.4976C404.27 79.6283 403.445 72.5317 407.314 67.6474C411.184 62.7631 418.28 61.9386 423.165 65.8052C428.052 69.6746 428.876 76.7711 425.007 81.6555Z" fill="white"/>
<path d="M413.748 67.6962L413.527 67.0541C414.197 66.8201 414.896 66.6786 415.606 66.6296L415.655 67.3071C415.005 67.3534 414.363 67.484 413.748 67.6962ZM419.437 68.0581C418.855 67.767 418.235 67.5575 417.598 67.4296L417.729 66.7629C418.425 66.9017 419.103 67.1303 419.739 67.4486L419.437 68.0581ZM410.564 69.8677L410.047 69.4269C410.51 68.8854 411.043 68.4065 411.628 68.0065L412.012 68.5697C411.476 68.9344 410.988 69.3724 410.564 69.8677ZM422.322 70.6159C421.965 70.0745 421.538 69.5792 421.048 69.1466L421.5 68.6378C422.033 69.1112 422.501 69.65 422.89 70.2432L422.322 70.6159ZM408.912 73.3534L408.243 73.2336C408.368 72.5316 408.586 71.8513 408.891 71.2092L409.506 71.5003C409.228 72.088 409.027 72.7112 408.912 73.3534ZM423.514 74.284C423.481 73.6309 423.361 72.9887 423.163 72.371L423.807 72.1588C424.028 72.8336 424.156 73.5357 424.194 74.2486L423.514 74.284ZM408.613 77.4295C408.368 76.7629 408.213 76.0663 408.15 75.3561L408.828 75.2962C408.885 75.9465 409.027 76.5833 409.25 77.1928L408.613 77.4295ZM423.296 78.3656L422.695 78.0499C422.994 77.4731 423.217 76.8581 423.356 76.2214L424.02 76.3683C423.867 77.0622 423.625 77.7343 423.296 78.3656ZM411.051 80.8608C410.499 80.4091 410.012 79.8866 409.603 79.3098L410.156 78.9152C410.531 79.4431 410.978 79.922 411.484 80.3356L411.051 80.8608ZM420.939 81.122L420.537 80.5751C421.056 80.1887 421.527 79.7343 421.933 79.2227L422.466 79.6445C422.022 80.205 421.511 80.7003 420.939 81.122ZM414.891 82.5941C414.186 82.4825 413.5 82.2785 412.855 81.9846L413.135 81.3642C413.726 81.6336 414.352 81.8213 414.997 81.922L414.891 82.5941ZM417.013 82.6485L416.942 81.971C417.59 81.903 418.224 81.7478 418.833 81.5138L419.078 82.1479C418.417 82.4036 417.72 82.5723 417.013 82.6485Z" fill="#9192FF"/>
<path d="M360.56 145.418L360.022 144.99C359.233 144.367 359.099 143.211 359.722 142.422L380.884 115.698C381.507 114.909 382.666 114.776 383.456 115.401L383.992 115.826C384.781 116.452 384.917 117.608 384.291 118.397L363.132 145.118C362.506 145.907 361.35 146.043 360.56 145.418Z" fill="#1B1B43"/>
<path d="M390.596 366.574H303.753C298.208 366.574 293.71 362.076 293.71 356.527V301.001C293.71 295.453 298.208 290.958 303.753 290.958H390.596C396.145 290.958 400.64 295.453 400.64 301.001V356.527C400.64 362.076 396.145 366.574 390.596 366.574Z" fill="#9192FF"/>
<path d="M323.881 358.639H312.303V335.126H323.881V358.639Z" fill="white"/>
<path d="M343.269 358.639H331.693V335.88H343.269V358.639Z" fill="white"/>
<path d="M362.659 358.639H351.081V323.991H362.659V358.639Z" fill="white"/>
<path d="M382.049 358.639H370.471V313.828H382.049V358.639Z" fill="white"/>
<path d="M378.238 304.323H316.113V301.607H378.238V304.323Z" fill="white"/>
<path d="M126.956 217.14C124.988 210.316 120.821 204.332 115.102 200.12L112.806 198.428L114.755 238.762L129.829 227.102L126.956 217.14Z" fill="#FFA121"/>
<path d="M175.401 265.896L172.052 259.338C171.204 257.676 169.698 256.449 167.9 255.951L158.046 253.221L132.696 237.036L129.831 227.102L114.756 238.762L114.893 241.594C115.167 247.279 118.653 252.31 123.877 254.563L148.491 265.18L160.191 265.442C163.961 266.74 165.261 269.991 167.601 268.821C168.473 268.386 165.066 262.775 165.066 262.775L170.721 269.014L175.401 265.896Z" fill="#FFBC96"/>
<path d="M129.679 241.189L129.084 240.683L132.399 236.784L132.994 237.29L129.679 241.189Z" fill="#D28572"/>
<path d="M131.312 282.233L149.754 280.606C161.759 279.545 172.202 289.24 172.787 301.988L176.955 392.821L151.514 393.612L131.312 282.233Z" fill="#26289C"/>
<path d="M153.561 392.709L154.341 417.8H192.04L173.45 402.331L172.28 390.241L153.561 392.709Z" fill="#1B1B43"/>
<path d="M165.997 409.057L165.045 407.822L172.974 401.713L173.926 402.948L165.997 409.057Z" fill="white"/>
<path d="M144.98 392.709L145.761 417.8H183.46L164.87 402.331L163.701 390.241L144.98 392.709Z" fill="#1B1B43"/>
<path d="M157.417 409.057L156.465 407.822L164.395 401.713L165.347 402.948L157.417 409.057Z" fill="white"/>
<path d="M173.061 395.18H141.86L119.623 326.759L116.511 317.18L72.0511 316.985C69.3053 316.946 66.6767 315.676 64.446 313.795C59.7192 309.809 57.5432 303.548 58.4011 297.423L62.3012 269.603L128.351 278.188C140.878 279.82 150.994 289.194 153.568 301.559L173.061 395.18Z" fill="#3335CF"/>
<path d="M125.676 317.181L119.623 326.759L116.511 317.181H125.676Z" fill="#1B1B43"/>
<path d="M117.509 264.563C117.189 265.85 116.854 267.137 116.51 268.432L114.171 277.986L83.3607 276.707L61.1777 275.787C55.2964 275.545 51.0377 270.084 52.2387 264.321L62.5818 214.55C63.9075 206.087 70.7793 199.573 79.3047 198.691L104.616 196.087L112.805 198.427C120.8 202.716 120.808 210.493 121.19 215.587C122.867 237.878 120.8 251.379 117.509 264.563Z" fill="#FFA121"/>
<path d="M64.6406 277.986H114.996V228.784H64.6406V277.986Z" fill="#BA792B"/>
<path d="M90.4974 210.485C91.8471 211.929 93.3837 213.192 95.1015 214.134C96.8122 215.075 98.6742 215.763 100.603 215.992C102.511 216.24 104.526 216.079 106.201 215.168C107.914 214.316 109.003 212.517 109.208 210.572L109.513 210.591C109.502 211.611 109.245 212.642 108.737 213.559C108.225 214.476 107.444 215.238 106.536 215.763C104.703 216.822 102.527 217.015 100.504 216.757C98.4691 216.476 96.5091 215.763 94.7717 214.705C93.022 213.66 91.4933 212.275 90.2637 210.681L90.4974 210.485Z" fill="#1B1B43"/>
<path d="M121.872 240.892L121.289 240.852C121.849 233.004 121.282 223.358 119.602 212.185L120.18 212.098C121.867 223.314 122.436 233.001 121.872 240.892Z" fill="#1B1B43"/>
<path d="M174.23 274.28H145.24V268.561H174.23V274.28Z" fill="#1B1B43"/>
<path d="M224.409 274.28H166.17L192.95 223.062H251.19L224.409 274.28Z" fill="#9192FF"/>
<path d="M96.9133 155.138C90.0886 148.409 77.2184 151.236 77.4135 162.547C63.3736 166.251 62.5935 181.657 68.2487 189.554L73.1235 189.943L74.1959 184.191L77.0236 190.041L90.6733 190.92L96.9133 155.138Z" fill="#1B1B43"/>
<path d="M108.321 180.292V201.78C108.321 201.976 108.313 202.164 108.297 202.349C107.962 206.773 103.68 209.9 99.3044 208.771C92.8535 207.1 88.3687 201.266 88.4233 194.605L88.5325 180.292H108.321Z" fill="#FFBC96"/>
<path d="M108.32 189.581V201.78C108.32 201.976 108.312 202.164 108.297 202.349C102.548 201.407 95.9026 194.751 94.2803 187.508L108.32 189.581Z" fill="#1B1B43"/>
<path d="M119.95 181.883C119.654 183.592 119.256 185.339 118.725 186.999C117.01 192.452 113.929 196.974 108.414 196.188C95.4506 194.332 88.2354 180.977 88.2354 180.977L97.1041 170.838L103.055 162.836L120.894 170.542C120.894 170.542 120.988 175.995 119.95 181.883Z" fill="#FFBC96"/>
<path d="M92.071 177.562C97.7605 177.38 102.161 174.482 104.031 166.251C104.031 166.251 117.291 177.693 123.791 171.581C129.234 166.466 120 154.694 104.716 153.29C99.1477 152.781 93.5975 154.517 89.2343 158.014C81.8264 163.951 81.1187 177.755 88.0411 182.533L92.071 177.562Z" fill="#1B1B43"/>
<path d="M85.4086 163.133C85.0369 161.789 85.3139 160.298 85.9139 159.016C86.5229 157.726 87.4625 156.602 88.5841 155.732C89.7057 154.858 91.0219 154.232 92.4053 153.944C93.7835 153.661 95.2491 153.704 96.5234 154.259C95.2077 154.684 94.0679 155.133 92.9968 155.685C91.9288 156.232 90.9416 156.866 90.0173 157.579C89.0951 158.295 88.2385 159.089 87.4674 159.99C86.6916 160.896 86.011 161.889 85.4086 163.133Z" fill="#FFA121"/>
<path d="M94.4836 176.825C95.5837 179.573 94.6316 182.539 92.3568 183.448C90.0823 184.359 87.3465 182.868 86.2464 180.12C85.1465 177.372 86.0986 174.406 88.3732 173.497C90.6477 172.585 93.3835 174.076 94.4836 176.825Z" fill="#FFBC96"/>
<path d="M90.365 181.418C90.4624 180.469 90.4689 179.568 90.1922 178.741C89.9236 177.911 89.3968 177.19 88.79 176.444L88.9816 176.207C89.8635 176.667 90.6121 177.489 90.9312 178.504C91.2521 179.519 91.1127 180.624 90.657 181.505L90.365 181.418Z" fill="#1B1B43"/>
<path d="M111.671 178.542C111.671 179.347 111.081 180 110.353 180C109.626 180 109.036 179.347 109.036 178.542C109.036 177.736 109.626 177.083 110.353 177.083C111.081 177.083 111.671 177.736 111.671 178.542Z" fill="#1B1B43"/>
<path d="M118.587 179.69C118.5 180.4 117.908 180.914 117.265 180.832C116.622 180.754 116.171 180.114 116.259 179.401C116.347 178.691 116.939 178.179 117.582 178.258C118.225 178.337 118.675 178.977 118.587 179.69Z" fill="#1B1B43"/>
<path d="M111.603 174.882C111.656 175.562 110.566 175.627 108.96 175.676C107.355 175.723 106.245 176.221 106.233 175.788C106.22 175.358 107.407 174.251 108.991 173.984C110.625 173.706 111.54 174.071 111.603 174.882Z" fill="#1B1B43"/>
<path d="M116.734 175.538C116.616 176.21 117.417 176.381 118.604 176.591C119.791 176.798 120.557 177.402 120.617 176.974C120.676 176.547 119.923 175.331 118.777 174.906C117.596 174.468 116.875 174.738 116.734 175.538Z" fill="#1B1B43"/>
<path d="M114.824 180.901C115.128 181.274 115.467 181.595 115.814 181.927L116.34 182.417C116.522 182.58 116.719 182.762 116.894 183.037C116.98 183.176 117.05 183.356 117.061 183.557C117.077 183.761 117.013 183.957 116.931 184.109C116.751 184.411 116.536 184.588 116.302 184.746C115.836 185.051 115.332 185.179 114.844 185.274L114.73 184.991C115.149 184.719 115.567 184.477 115.893 184.196C116.048 184.058 116.201 183.889 116.256 183.758C116.316 183.63 116.299 183.587 116.227 183.435C116.054 183.149 115.611 182.771 115.323 182.376C115.007 181.984 114.723 181.538 114.557 181.048L114.824 180.901Z" fill="#1B1B43"/>
<path d="M108.222 185.701C109.019 186.613 109.849 187.453 110.847 187.987C111.839 188.536 112.968 188.692 114.163 188.561L114.244 188.855C113.667 189.113 113.016 189.249 112.359 189.211C111.701 189.184 111.05 188.985 110.477 188.67C109.326 188.03 108.478 186.996 107.965 185.867L108.222 185.701Z" fill="#1B1B43"/>
<path d="M103.545 184.874C101.767 184.874 100.326 183.431 100.326 181.655C100.326 179.878 101.767 178.436 103.545 178.436C105.323 178.436 106.763 179.878 106.763 181.655C106.763 183.431 105.323 184.874 103.545 184.874Z" fill="#FFA988"/>
<path d="M118.726 187C118.227 186.431 117.923 185.691 117.923 184.872C117.923 183.514 118.765 182.36 119.951 181.884C119.655 183.593 119.256 185.34 118.726 187Z" fill="#FFA988"/>
<path d="M83.2304 219.94L64.6406 228.78L70.4711 242.601L89.9624 233.613L83.2304 219.94Z" fill="#FFA121"/>
<path d="M152.092 267.875C151.576 267.616 151.254 267.442 151.254 267.442L151.44 267.075C151.44 267.075 151.783 267.241 152.282 267.507L152.092 267.875Z" fill="#C5C5FF"/>
<path d="M159.801 269.796C159.2 270.982 154.598 268.884 152.453 267.831C154.114 268.751 156.977 270.56 155.706 271.551C154.684 272.34 152.422 270.661 145.012 267.589C146.135 268.119 152.757 271.27 151.088 272.462C149.271 273.757 141.471 270.903 141.471 270.903L134.708 274.538H126.908L98.8439 274.718C97.0812 274.726 95.334 274.5 93.6412 274.062C90.3106 273.213 87.1751 271.559 84.5153 269.336C82.8383 267.932 81.3953 266.285 80.1864 264.476C79.2816 263.118 78.5094 261.66 77.8699 260.138L70.4678 242.607L89.9596 233.611L100.131 254.258L133.671 261.543L143.031 259.202C145.043 258.696 147.89 259.548 149.661 260.631C153.982 263.276 160.362 268.664 159.801 269.796Z" fill="#FFBC96"/>
<path d="M93.6414 274.063C90.3108 273.214 87.1753 271.559 84.5155 269.336C82.8385 267.932 81.3955 266.286 80.1865 264.476C81.6608 263.29 83.5326 262.582 85.5688 262.582C90.3108 262.582 94.1486 266.419 94.1486 271.162C94.1486 272.182 93.969 273.159 93.6414 274.063Z" fill="#FFA988"/>
<path d="M133.622 261.396C135.948 260.623 138.304 259.956 140.709 259.453C141.912 259.205 143.129 259.004 144.37 258.933C144.991 258.898 145.619 258.909 146.252 258.982C146.566 259.045 146.877 259.126 147.19 259.2C147.488 259.303 147.778 259.426 148.073 259.537C150.354 260.571 152.342 262.051 154.265 263.573C156.187 265.104 158.002 266.751 159.765 268.465L159.846 268.544L159.864 268.645C159.926 269.015 159.883 269.355 159.678 269.7C159.553 269.845 159.424 270.005 159.255 270.073C159.091 270.179 158.929 270.217 158.767 270.245C158.121 270.351 157.556 270.217 157.015 270.073C155.931 269.774 154.963 269.279 153.988 268.8C153.033 268.291 152.092 267.76 151.18 267.186C150.252 266.636 149.371 266.022 148.467 265.439L148.879 264.778C150.475 265.725 152.027 266.718 153.511 267.845C154.247 268.419 154.976 269.001 155.603 269.768C155.754 269.972 155.905 270.177 156.01 270.454C156.068 270.585 156.099 270.751 156.103 270.93C156.089 271.118 156.031 271.317 155.903 271.464C155.657 271.747 155.361 271.842 155.111 271.904C154.851 271.972 154.608 271.986 154.361 272.011L154.284 272.019L154.201 271.983L145.734 268.438L145.987 267.842C147.322 268.457 148.62 269.118 149.858 269.932C150.461 270.362 151.097 270.753 151.541 271.499C151.643 271.687 151.716 271.975 151.611 272.245C151.504 272.506 151.297 272.672 151.108 272.762C150.716 272.96 150.322 273.001 149.943 273.023C148.425 273.058 147 272.702 145.585 272.353C144.175 271.981 142.789 271.54 141.419 271.045L141.522 270.759C142.89 271.216 144.282 271.619 145.685 271.953C147.082 272.269 148.522 272.577 149.913 272.509C150.576 272.481 151.367 272.19 151.044 271.752C150.74 271.241 150.112 270.805 149.535 270.421C148.337 269.66 147.034 269.015 145.728 268.435L145.981 267.839L154.479 271.311L154.32 271.284C154.529 271.262 154.745 271.249 154.93 271.197C155.122 271.156 155.276 271.069 155.329 271.007C155.448 270.958 155.288 270.538 155.022 270.226C154.483 269.57 153.769 268.99 153.054 268.443C151.609 267.355 150.057 266.373 148.491 265.453L148.903 264.794C149.8 265.368 150.671 265.989 151.584 266.533C152.483 267.102 153.405 267.627 154.336 268.13C155.278 268.598 156.23 269.085 157.215 269.358C157.698 269.496 158.212 269.592 158.625 269.521L158.776 269.496C158.822 269.483 158.85 269.453 158.89 269.436C158.98 269.409 159.007 269.338 159.068 269.295C159.145 269.178 159.179 268.96 159.152 268.802L159.25 268.982C157.524 267.279 155.708 265.646 153.835 264.103C151.957 262.577 149.999 261.094 147.836 260.081L147.013 259.752C146.731 259.684 146.453 259.605 146.17 259.545C145.59 259.472 144.995 259.45 144.396 259.477C143.197 259.526 141.992 259.692 140.798 259.913C138.41 260.356 136.044 260.968 133.718 261.687L133.622 261.396Z" fill="#D28572"/>
<path d="M70.5896 242.871L70.3447 242.34L89.5789 233.467L81.5678 214.719L82.1057 214.487L90.3402 233.758L70.5896 242.871Z" fill="#1B1B43"/>
<path d="M73.3417 412.861H72.3213V324.982H73.3417V412.861Z" fill="#1B1B43"/>
<path d="M97.4005 328.881H48.2607C44.9222 328.881 42.2158 326.173 42.2158 322.835C42.2158 319.496 44.9222 316.791 48.2607 316.791H97.4005C100.739 316.791 103.445 319.496 103.445 322.835C103.445 326.173 100.739 328.881 97.4005 328.881Z" fill="#D1D1FF"/>
<path d="M93.5007 418.581H52.1611V417.582C52.1611 412.562 56.2305 408.491 61.2509 408.491H84.4113C89.4314 408.491 93.5007 412.562 93.5007 417.582V418.581Z" fill="#D1D1FF"/>
<path d="M218.519 418.252L131.419 280.193L132.282 279.649L219.381 417.708L218.519 418.252Z" fill="#1B1B43"/>
<path d="M132.282 418.252L131.419 417.708L218.519 279.649L219.381 280.193L132.282 418.252Z" fill="#1B1B43"/>
<path d="M251.71 285.79H99.0908V274.28H251.71V285.79Z" fill="#D1D1FF"/>
<path d="M111.885 27.6698C94.6731 27.6698 80.6705 41.6724 80.6705 58.8832C80.6705 76.0967 94.6731 90.0993 111.885 90.0993C129.096 90.0993 143.099 76.0967 143.099 58.8832C143.099 41.6724 129.096 27.6698 111.885 27.6698ZM111.885 90.7795C94.2982 90.7795 79.9902 76.4722 79.9902 58.8832C79.9902 41.2969 94.2982 26.9895 111.885 26.9895C129.472 26.9895 143.779 41.2969 143.779 58.8832C143.779 76.4722 129.472 90.7795 111.885 90.7795Z" fill="#9192FF"/>
<path d="M168.155 46.3883C168.155 65.5528 152.618 81.0901 133.452 81.0901C114.286 81.0901 98.749 65.5528 98.749 46.3883C98.749 27.2211 114.286 11.6838 133.452 11.6838C152.618 11.6838 168.155 27.2211 168.155 46.3883Z" fill="#EBEBFF"/>
<path d="M133.464 47.0434L114.226 31.9632L114.856 31.1605L133.44 45.7291L143.802 36.9536L144.462 37.7319L133.464 47.0434Z" fill="#1B1B43"/>
<path d="M43.3969 121.226H25.775C22.9394 121.226 20.6406 123.525 20.6406 126.36V143.982C20.6406 146.817 22.9394 149.116 25.775 149.116H38.351L43.7697 156.599V149.097C46.4307 148.907 48.5316 146.692 48.5316 143.982V126.36C48.5316 123.525 46.2326 121.226 43.3969 121.226Z" fill="white"/>
<path d="M25.7756 121.565C23.1318 121.565 20.981 123.715 20.981 126.36V143.981C20.981 146.626 23.1318 148.776 25.7756 148.776H38.5254L43.4299 155.549V148.781L43.7455 148.757C46.2386 148.577 48.1918 146.479 48.1918 143.981V126.36C48.1918 123.715 46.041 121.565 43.3975 121.565H25.7756ZM44.1102 157.649L38.1777 149.456H25.7756C22.7568 149.456 20.3008 146.999 20.3008 143.981V126.36C20.3008 123.342 22.7568 120.885 25.7756 120.885H43.3975C46.4163 120.885 48.872 123.342 48.872 126.36V143.981C48.872 146.73 46.8046 149.051 44.1102 149.404V157.649Z" fill="#9192FF"/>
<path d="M34.2254 144.24L27.1719 134.05L28.8497 132.888L34.041 140.387L41.8591 126.395L43.6406 127.391L34.2254 144.24Z" fill="#9192FF"/>
<path d="M431.802 418.581H13.7256V417.561H431.802V418.581Z" fill="#1B1B43"/>
</svg>
